<?xml version="1.0" encoding="UTF-8" standalone=false?>
<!-- Created with Inkscape (http://www.inkscape.org/) -->

<svg
   width="160.14281mm"
   height="160.1425mm"
   viewBox="0 0 160.14281 160.1425"
   version="1.1"
   id="svg1534"
   xmlns="http://www.w3.org/2000/svg"
   xmlns:svg="http://www.w3.org/2000/svg">
  <defs
     id="defs1531" />
  <g
     id="layer1"
     transform="translate(-24.2466,-37.760199)">
    <g
       id="g372"
       transform="matrix(0.35277777,0,0,-0.35277777,-36.793038,232.67168)"
       style="fill:#009900">
      <g
         id="g378"
         style="fill:#009900">
        <g
           id="g380"
           style="fill:#009900">
          <path
             d="m 276.174,296.189 -10.839,-40.454 c -7.655,15.088 -12.8,31.668 -14.861,49.194 v 0 h -37.988 c 8.235,-88.357 78.555,-158.674 166.908,-166.91 v 0 37.987 c -17.525,2.063 -34.103,7.205 -49.19,14.861 v 0 l 40.454,10.84 17.29,64.531 -47.244,47.24 z"
             style="fill:#009900;stroke:none"
             id="path388" />
        </g>
      </g>
    </g>
    <g
       id="g390"
       transform="matrix(0.35277777,0,0,-0.35277777,-36.793038,232.67168)"
       style="fill:#009900">
      <g
         id="g392"
         style="fill:#009900">
        <g
           id="g398"
           style="fill:#009900">
          <g
             id="g400"
             style="fill:#009900">
            <path
               d="m 187.825,184.811 c -19.732,-19.73 -19.733,-51.72 0.001,-71.453 v 0 c 19.731,-19.733 51.722,-19.733 71.456,0 v 0 c 19.731,19.729 19.731,51.721 -0.003,71.453 v 0 c -9.866,9.866 -22.797,14.8 -35.728,14.8 v 0 c -12.93,0 -25.861,-4.933 -35.726,-14.8"
               style="fill:#009900;stroke:none"
               id="path408" />
          </g>
        </g>
      </g>
    </g>
    <g
       id="g410"
       transform="matrix(0.35277777,0,0,-0.35277777,-36.793038,232.67168)"
       style="fill:#ff3300">
      <g
         id="g412"
         style="fill:#ff3300">
        <g
           id="g418"
           style="fill:#ff3300">
          <g
             id="g420"
             style="fill:#ff3300">
            <path
               d="m 540.72,184.81 c -19.732,-19.731 -19.732,-51.723 10e-4,-71.454 v 0 c 19.731,-19.731 51.722,-19.731 71.453,0 v 0 c 19.733,19.733 19.733,51.723 10e-4,71.455 v 0 c -9.865,9.865 -22.798,14.797 -35.727,14.799 v 0 c -12.933,10e-4 -25.861,-4.932 -35.728,-14.8"
               style="fill:#ff3300;stroke:none"
               id="path428" />
          </g>
        </g>
      </g>
    </g>
    <g
       id="g430"
       transform="matrix(0.35277777,0,0,-0.35277777,-36.793038,232.67168)"
       style="fill:#ff3300">
      <g
         id="g432"
         style="fill:#ff3300">
        <g
           id="g438"
           style="fill:#ff3300">
          <g
             id="g440"
             style="fill:#ff3300">
            <path
               d="m 412.053,266.237 17.292,-64.53 36.218,-9.706 c -15.667,-8.284 -33.004,-13.834 -51.38,-15.995 v 0 l 0.001,-37.987 c 88.352,8.236 158.67,78.553 166.904,166.909 v 0 h -37.986 c -1.668,-14.201 -5.367,-27.783 -10.781,-40.45 v 0 l -8.496,31.711 -64.532,17.287 z"
               style="fill:#ff3300;stroke:none"
               id="path448" />
          </g>
        </g>
      </g>
    </g>
    <g
       id="g450"
       transform="matrix(0.35277777,0,0,-0.35277777,-36.793038,232.67168)"
       style="fill:#0066cc">
      <g
         id="g452"
         style="fill:#0066cc">
        <g
           id="g458"
           style="fill:#0066cc">
          <g
             id="g460"
             style="fill:#0066cc">
            <path
               d="m 414.182,468.634 c 15.116,-1.779 29.528,-5.852 42.887,-11.848 v 0 l -27.728,-7.43 -17.289,-64.532 47.241,-47.241 64.531,17.293 7.431,27.727 c 5.997,-13.361 10.067,-27.773 11.846,-42.89 v 0 l 37.987,10e-4 c -8.233,88.353 -78.553,158.672 -166.906,166.905 v 0 z"
               style="fill:#0066cc;stroke:none"
               id="path468" />
          </g>
        </g>
      </g>
    </g>
    <g
       id="g470"
       transform="matrix(0.35277777,0,0,-0.35277777,-36.793038,232.67168)"
       style="fill:#0083d7">
      <g
         id="g472"
         style="fill:#0083d7">
        <g
           id="g478"
           style="fill:#0083d7">
          <g
             id="g480"
             style="fill:#0083d7">
            <path
               d="m 540.719,537.708 c -19.732,-19.733 -19.731,-51.724 0.003,-71.458 v 0 c 19.732,-19.731 51.721,-19.731 71.453,10e-4 v 0 c 19.731,19.731 19.73,51.721 -10e-4,71.452 v 0 c -9.867,9.867 -22.801,14.801 -35.732,14.802 v 0 c -12.93,10e-4 -25.857,-4.931 -35.723,-14.797"
               style="fill:#0083d7;stroke:none"
               id="path488" />
          </g>
        </g>
      </g>
    </g>
    <g
       id="g510"
       transform="matrix(0.35277777,0,0,-0.35277777,-36.793038,232.67168)"
       style="fill:#ffff00">
      <g
         id="g512"
         style="fill:#ffff00">
        <g
           id="g518"
           style="fill:#ffff00">
          <g
             id="g520"
             style="fill:#ffff00">
            <path
               d="m 187.827,537.708 c -19.734,-19.734 -19.735,-51.725 -0.001,-71.457 v 0 c 19.73,-19.731 51.722,-19.731 71.455,0.001 v 0 c 19.731,19.731 19.73,51.723 0,71.455 v 0 c -9.866,9.865 -22.799,14.798 -35.729,14.798 v 0 c -12.931,0 -25.86,-4.932 -35.725,-14.797"
               style="fill:#ffff00;stroke:none"
               id="path528" />
          </g>
        </g>
      </g>
    </g>
    <path
       d="m 38.168005,112.82813 13.400616,-3.5e-4 c 0.762353,-6.48229 2.720622,-12.59879 5.643033,-18.126108 v 0 L 60.635715,107.47896 83.40117,113.5792 100.06569,96.913236 93.966512,74.148487 82.779576,71.151639 c 4.470047,-1.910644 9.260416,-3.214158 14.268802,-3.803649 v 0 l 3.53e-4,-13.400617 C 65.879757,56.852498 41.072777,81.659478 38.168005,112.82813"
       style="fill:#ffff00;stroke:none;stroke-width:0.352778"
       id="path508" />
    <path
       id="rect2376-6"
       style="fill:#333366;stroke:#00a700;stroke-width:0.133695"
       d="m 102.47983,104.12821 -4.178095,4.18075 h -5.971356 l -10e-7,5.97543 -4.26621,4.26897 4.266208,4.0944 10e-7,5.85175 6.097575,-10e-6 4.356228,4.18075 4.1781,-4.18074 h 5.97136 v -5.97544 l 4.26621,-4.26897 -4.26621,-4.0944 v -5.85174 h -6.09758 z" />
  </g>
</svg>
